Coordinates
version=1
nRows=37
nColumns=38
inDegrees=no

Units are S.I. units (second, meters, Newtons, ...)
If the header above contains a line with 'inDegrees', this indicates whether rotational values are in degrees (yes) or radians (no).

endheader
time	pelvis_tilt	pelvis_list	pelvis_rotation	pelvis_tx	pelvis_ty	pelvis_tz	hip_flexion_r	hip_adduction_r	hip_rotation_r	knee_angle_r	ankle_angle_r	subtalar_angle_r	mtp_angle_r	hip_flexion_l	hip_adduction_l	hip_rotation_l	knee_angle_l	ankle_angle_l	subtalar_angle_l	mtp_angle_l	lumbar_extension	lumbar_bending	lumbar_rotation	arm_flex_r	arm_add_r	arm_rot_r	elbow_flex_r	pro_sup_r	wrist_flex_r	wrist_dev_r	arm_flex_l	arm_add_l	arm_rot_l	elbow_flex_l	pro_sup_l	wrist_flex_l	wrist_dev_l
2.29	0.124479	1.39355	-1.57363	0.700245	-0.340126	0.917827	0.254663	-0.128568	-0.491262	0.554765	0.0950473	0	0	-0.190156	-0.108317	-0.104878	0.885094	0.00417674	0	0	-0.311271	0.0444056	-0.0938538	-0.11679	-0.321089	0.331097	0.734845	1.27708	0	0	0.173303	-0.480786	0.887737	0.838139	0.553011	0	0
2.3	0.108947	1.39472	-1.56102	0.698331	-0.350549	0.918695	0.244356	-0.121438	-0.490233	0.55625	0.106403	0	0	-0.16307	-0.111026	-0.0854555	0.931016	-0.0486503	0	0	-0.309046	0.0478758	-0.0868934	-0.119534	-0.327984	0.340006	0.743637	1.26699	0	0	0.168158	-0.479837	0.903108	0.837826	0.539968	0	0
2.31	0.0801602	1.39575	-1.53399	0.696587	-0.360768	0.919441	0.234241	-0.112331	-0.489225	0.558045	0.116612	0	0	-0.131555	-0.119496	-0.0722014	0.983348	-0.0974075	0	0	-0.307176	0.0540166	-0.0802406	-0.122345	-0.334707	0.344817	0.753165	1.262	0	0	0.163109	-0.477971	0.91543	0.837351	0.531891	0	0
2.32	0.05733	1.39464	-1.51279	0.694914	-0.370771	0.920476	0.221934	-0.104489	-0.487537	0.559385	0.12553	0	0	-0.102279	-0.126489	-0.0606835	1.03289	-0.13733	0	0	-0.308087	0.0589172	-0.0735652	-0.124224	-0.340771	0.347775	0.761854	1.25904	0	0	0.158937	-0.475874	0.926167	0.83656	0.526137	0	0
2.33	0.0377979	1.39267	-1.4948	0.693277	-0.380723	0.92164	0.208168	-0.0973409	-0.486907	0.559627	0.133647	0	0	-0.0742939	-0.133495	-0.0531169	1.07891	-0.163257	0	0	-0.309923	0.0630412	-0.066858	-0.125569	-0.346119	0.349396	0.769125	1.25709	0	0	0.154839	-0.473391	0.934955	0.835096	0.523448	0	0
2.34	0.0300749	1.38949	-1.48978	0.691559	-0.390493	0.923085	0.192796	-0.0921619	-0.486013	0.558661	0.141274	0	0	-0.0504493	-0.137142	-0.047728	1.11733	-0.174831	0	0	-0.313607	0.0645478	-0.0595544	-0.125713	-0.350327	0.34952	0.774356	1.25566	0	0	0.150926	-0.470527	0.941318	0.832771	0.523913	0	0
2.35	0.0256244	1.38664	-1.48884	0.689782	-0.400091	0.924551	0.177299	-0.0871846	-0.484645	0.556166	0.148376	0	0	-0.0264531	-0.140134	-0.0441622	1.15326	-0.174296	0	0	-0.317246	0.0650003	-0.0517293	-0.125439	-0.353369	0.346795	0.778564	1.25531	0	0	0.147129	-0.467525	0.946437	0.830256	0.526119	0	0
2.36	0.0287648	1.38366	-1.49519	0.688	-0.409555	0.926189	0.160653	-0.0834601	-0.484213	0.551687	0.153989	0	0	-0.00267083	-0.140665	-0.0393907	1.18751	-0.161659	0	0	-0.321175	0.0635779	-0.0449777	-0.123751	-0.354833	0.343206	0.780179	1.2557	0	0	0.143173	-0.465	0.950228	0.827946	0.52914	0	0
2.37	0.0373074	1.38104	-1.50738	0.686231	-0.418871	0.927881	0.143925	-0.0806569	-0.48359	0.545818	0.158666	0	0	0.0216894	-0.139389	-0.0353253	1.22015	-0.142053	0	0	-0.324863	0.0606347	-0.0382974	-0.121236	-0.355727	0.339338	0.780706	1.25574	0	0	0.139382	-0.462686	0.953274	0.826021	0.532967	0	0
2.38	0.0508191	1.37854	-1.52517	0.68446	-0.428008	0.929655	0.127181	-0.0787385	-0.482204	0.539019	0.162633	0	0	0.0449347	-0.136412	-0.0324314	1.24685	-0.124577	0	0	-0.328573	0.0562208	-0.0314638	-0.118238	-0.355907	0.333237	0.780776	1.25844	0	0	0.135934	-0.460702	0.956389	0.824801	0.536789	0	0
2.39	0.0671388	1.37689	-1.54573	0.682743	-0.436996	0.931395	0.111368	-0.0775196	-0.480719	0.531713	0.166549	0	0	0.0679201	-0.132452	-0.030178	1.26633	-0.112036	0	0	-0.331274	0.0509926	-0.0247856	-0.115389	-0.35552	0.325349	0.780769	1.26238	0	0	0.132173	-0.458624	0.957915	0.824011	0.539887	0	0
2.4	0.0860802	1.37637	-1.56913	0.681119	-0.4458	0.933025	0.097171	-0.0773353	-0.478664	0.524522	0.170646	0	0	0.0912625	-0.127462	-0.0287435	1.27979	-0.102836	0	0	-0.332738	0.045194	-0.0180607	-0.112878	-0.355541	0.317198	0.782174	1.26537	0	0	0.128596	-0.456553	0.958872	0.823884	0.54219	0	0
2.41	0.107827	1.37639	-1.59559	0.679639	-0.45452	0.934581	0.0838528	-0.078591	-0.477488	0.517723	0.17501	0	0	0.114075	-0.121489	-0.0284721	1.28795	-0.0951275	0	0	-0.333449	0.0389756	-0.0112937	-0.111062	-0.35624	0.309633	0.785448	1.266	0	0	0.124971	-0.454407	0.959036	0.824672	0.543427	0	0
2.42	0.129887	1.37729	-1.62235	0.678257	-0.463207	0.936029	0.0716399	-0.0805525	-0.478431	0.511242	0.179798	0	0	0.136783	-0.115431	-0.0292366	1.29119	-0.0880436	0	0	-0.332901	0.0328225	-0.00465711	-0.110144	-0.35694	0.301129	0.790415	1.26479	0	0	0.121046	-0.452405	0.958405	0.826354	0.543887	0	0
2.43	0.150671	1.37831	-1.64795	0.676934	-0.47191	0.937434	0.0592706	-0.0825958	-0.481288	0.504357	0.184473	0	0	0.158267	-0.110027	-0.0315191	1.28921	-0.0824037	0	0	-0.331842	0.0270451	0.00196552	-0.109839	-0.358096	0.293172	0.797021	1.26176	0	0	0.116605	-0.450378	0.956383	0.828746	0.543641	0	0
2.44	0.170361	1.37877	-1.67342	0.675595	-0.480627	0.93882	0.0459592	-0.0841227	-0.481504	0.496525	0.188938	0	0	0.177538	-0.105375	-0.0361562	1.28217	-0.0780042	0	0	-0.331094	0.0213102	0.00937078	-0.110114	-0.359892	0.286044	0.80544	1.25666	0	0	0.111268	-0.44796	0.951002	0.83179	0.543463	0	0
2.45	0.188978	1.37881	-1.69984	0.674215	-0.489287	0.940158	0.0327114	-0.085361	-0.478573	0.488382	0.19364	0	0	0.194615	-0.101555	-0.0442525	1.27062	-0.0728597	0	0	-0.330959	0.01552	0.018391	-0.110974	-0.362834	0.279531	0.816874	1.2475	0	0	0.105118	-0.444789	0.941788	0.835354	0.543792	0	0
2.46	0.206403	1.37857	-1.72599	0.672843	-0.497832	0.941431	0.0196493	-0.0866076	-0.474925	0.480357	0.197582	0	0	0.210087	-0.098626	-0.054894	1.25526	-0.0651471	0	0	-0.331336	0.00983965	0.0279005	-0.111171	-0.366819	0.275044	0.829013	1.23843	0	0	0.0988865	-0.441261	0.930944	0.838906	0.544866	0	0
2.47	0.235878	1.37761	-1.76326	0.670402	-0.50627	0.942484	0.00858267	-0.0858596	-0.467063	0.473748	0.198734	0	0	0.225648	-0.107611	-0.0640486	1.23443	-0.0487841	0	0	-0.332282	-5.08118e-05	0.036357	-0.110923	-0.369905	0.273466	0.842209	1.2258	0	0	0.0922511	-0.438953	0.915615	0.842484	0.547797	0	0
2.48	0.250402	1.37698	-1.7851	0.66902	-0.514736	0.943545	-0.00485097	-0.0862438	-0.463611	0.46553	0.202515	0	0	0.238105	-0.106999	-0.0770294	1.21135	-0.0393689	0	0	-0.332855	-0.00528899	0.0440418	-0.109894	-0.373522	0.270666	0.852652	1.21904	0	0	0.0867187	-0.435983	0.905578	0.845999	0.548704	0	0
2.49	0.264872	1.37529	-1.80682	0.667794	-0.523214	0.94455	-0.019503	-0.0870945	-0.459631	0.457035	0.206919	0	0	0.247775	-0.106623	-0.0920445	1.18425	-0.0294892	0	0	-0.334471	-0.0107403	0.0516852	-0.109171	-0.377776	0.267813	0.864447	1.21226	0	0	0.0815027	-0.43283	0.894132	0.849927	0.548976	0	0
2.5	0.278059	1.37336	-1.82698	0.666652	-0.531606	0.945427	-0.0345213	-0.0879948	-0.45647	0.448234	0.211495	0	0	0.255686	-0.106589	-0.108564	1.15348	-0.01907	0	0	-0.336621	-0.0159893	0.0587187	-0.107848	-0.382328	0.265463	0.876151	1.207	0	0	0.0764416	-0.429464	0.880977	0.853637	0.548501	0	0
2.51	0.289058	1.37053	-1.84489	0.665695	-0.539874	0.94625	-0.050524	-0.0887275	-0.452613	0.439036	0.21613	0	0	0.260976	-0.106664	-0.126426	1.11897	-0.00941598	0	0	-0.340085	-0.0210098	0.0651949	-0.105638	-0.387228	0.26463	0.887651	1.2013	0	0	0.0715469	-0.42596	0.86698	0.857046	0.549068	0	0
2.52	0.297233	1.36703	-1.8596	0.664671	-0.548133	0.946973	-0.0676747	-0.0890091	-0.4484	0.42923	0.220948	0	0	0.263855	-0.10698	-0.145528	1.08113	0.000170829	0	0	-0.34436	-0.0258167	0.0710879	-0.102962	-0.392075	0.264746	0.898915	1.19504	0	0	0.0676103	-0.423099	0.856321	0.860051	0.552726	0	0
2.53	0.303754	1.36343	-1.87159	0.66374	-0.556361	0.94753	-0.0855012	-0.0890229	-0.445363	0.418733	0.22658	0	0	0.26518	-0.106977	-0.164966	1.04009	0.00941199	0	0	-0.348785	-0.0302723	0.0762585	-0.100431	-0.396324	0.263776	0.909747	1.18969	0	0	0.0654	-0.420888	0.848967	0.862576	0.556607	0	0
2.54	0.307613	1.36042	-1.87895	0.663024	-0.564618	0.947856	-0.103548	-0.0883358	-0.444941	0.407803	0.232536	0	0	0.265987	-0.106635	-0.183462	0.996298	0.0179571	0	0	-0.352707	-0.0336013	0.0795613	-0.0979729	-0.39991	0.261837	0.919964	1.18624	0	0	0.0639838	-0.41918	0.843248	0.864931	0.559033	0	0
2.55	0.308947	1.35742	-1.88402	0.662392	-0.572795	0.94799	-0.121365	-0.0874954	-0.444287	0.397515	0.238449	0	0	0.265303	-0.106143	-0.203154	0.949457	0.0255726	0	0	-0.357155	-0.0364059	0.0825189	-0.0948887	-0.40378	0.260372	0.930388	1.18421	0	0	0.0623238	-0.416938	0.835646	0.867015	0.562209	0	0
2.56	0.306881	1.35465	-1.88694	0.661836	-0.580796	0.947925	-0.138127	-0.0865211	-0.442075	0.388466	0.244408	0	0	0.263239	-0.105779	-0.224625	0.899485	0.031648	0	0	-0.362179	-0.0385134	0.0862076	-0.0911069	-0.408472	0.25966	0.941211	1.18418	0	0	0.0614211	-0.414195	0.828747	0.868506	0.56575	0	0
2.57	0.301649	1.35284	-1.88576	0.661472	-0.588774	0.947588	-0.154218	-0.0846861	-0.440913	0.379834	0.250852	0	0	0.261097	-0.105424	-0.246015	0.847143	0.0365067	0	0	-0.366432	-0.0393902	0.0889985	-0.0873506	-0.412682	0.258358	0.951531	1.18578	0	0	0.061233	-0.411687	0.823755	0.869548	0.56931	0	0
2.58	0.293951	1.35155	-1.8808	0.661309	-0.596789	0.946993	-0.170372	-0.0820361	-0.440782	0.370755	0.257997	0	0	0.258775	-0.104763	-0.267607	0.792888	0.040412	0	0	-0.370285	-0.0392191	0.090809	-0.0843295	-0.416084	0.255325	0.96174	1.1889	0	0	0.0610544	-0.408998	0.818084	0.87044	0.57335	0	0
2.59	0.284545	1.35073	-1.87386	0.661292	-0.604801	0.946153	-0.186063	-0.079037	-0.440608	0.361819	0.265265	0	0	0.256228	-0.103542	-0.290013	0.736783	0.043837	0	0	-0.373966	-0.0382805	0.0923456	-0.0816658	-0.419191	0.25136	0.972045	1.19297	0	0	0.0614479	-0.406321	0.813334	0.870929	0.578397	0	0
2.6	0.273109	1.35048	-1.86371	0.661401	-0.612869	0.945087	-0.201438	-0.0754995	-0.441475	0.353151	0.272551	0	0	0.253934	-0.10145	-0.3116	0.679416	0.0470957	0	0	-0.377066	-0.0363562	0.0925324	-0.0783333	-0.422247	0.248192	0.981004	1.19852	0	0	0.0621495	-0.403917	0.809782	0.871058	0.583014	0	0
2.61	0.262758	1.35073	-1.85349	0.661817	-0.620954	0.943812	-0.215765	-0.0724291	-0.444277	0.346273	0.280453	0	0	0.251882	-0.097593	-0.331027	0.62093	0.050207	0	0	-0.379474	-0.034296	0.0916323	-0.0748685	-0.424635	0.244943	0.98842	1.2057	0	0	0.0629895	-0.401677	0.806911	0.870847	0.587943	0	0
2.62	0.254933	1.35165	-1.84535	0.662381	-0.628943	0.942344	-0.227902	-0.0704687	-0.44798	0.342167	0.289344	0	0	0.250114	-0.0915566	-0.349278	0.560666	0.0529731	0	0	-0.381547	-0.0325225	0.090315	-0.0714345	-0.426195	0.240912	0.99464	1.21304	0	0	0.0646559	-0.399224	0.804442	0.869663	0.594119	0	0
2.63	0.249966	1.35354	-1.83873	0.663181	-0.636812	0.940663	-0.238212	-0.0690925	-0.453187	0.339662	0.298782	0	0	0.248947	-0.0829512	-0.363884	0.49872	0.0560663	0	0	-0.382896	-0.0307653	0.087879	-0.0678792	-0.426711	0.234842	0.999669	1.22073	0	0	0.067405	-0.39698	0.803272	0.867712	0.601452	0	0
2.64	0.234812	1.35619	-1.82802	0.664482	-0.644894	0.938939	-0.251121	-0.0756444	-0.469592	0.337067	0.315022	0	0	0.247415	-0.0688372	-0.366688	0.436415	0.0571127	0	0	-0.383577	-0.0268572	0.0885878	-0.0628575	-0.427811	0.228533	1.00326	1.22937	0	0	0.0686857	-0.393714	0.80285	0.865215	0.609029	0	0
2.65	0.236296	1.35774	-1.82723	0.665367	-0.652994	0.937121	-0.260163	-0.077351	-0.477879	0.339227	0.325748	0	0	0.242541	-0.0567866	-0.369831	0.369804	0.0633337	0	0	-0.384741	-0.0269021	0.0854105	-0.0596396	-0.426681	0.221704	1.00536	1.23777	0	0	0.0717253	-0.391372	0.800933	0.861616	0.616439	0	0
